# xmcd
# 
# Track frame offsets:
#     150
#     13258
#     27212
#     44028
#     60779
# 
# Disc length: 988
# 
# Revision: 0
# Processed by: cddbd v1.5.2PL0 Copyright (c) Steve Scherf et al.
# Submitted via: fre:ac v1.0.17
# 
DISCID=3803da05
DTITLE=Tefra - seven tenths of madness
DYEAR=2002
DGENRE=Heavy Metal
TTITLE0=carved in mind
TTITLE1=apotefrosis
TTITLE2=anything less
TTITLE3=goat of mendez
TTITLE4=epi tas
EXTD=
EXTT0=
EXTT1=
EXTT2=
EXTT3=
EXTT4=
PLAYORDER=
